<svg xmlns="http://www.w3.org/2000/svg" width="30" height="28.753" viewBox="0 0 30 28.753">
  <g id="Group_757" data-name="Group 757" transform="translate(-54 -812)">
    <path id="Shape" d="M23.276.047l-6.724,2.9v7.143a4.232,4.232,0,0,0,1.784,3.434l.766.548a.113.113,0,0,1,.026.016l4.148,2.953,4.94-3.517A4.232,4.232,0,0,0,30,10.091V2.948Zm5.69,10.045a3.186,3.186,0,0,1-1.35,2.591l-4.04,2.876a.507.507,0,0,1-.6,0l-4.04-2.876a3.192,3.192,0,0,1-1.35-2.591V3.972A.523.523,0,0,1,17.9,3.5l5.172-2.234a.523.523,0,0,1,.414,0L28.655,3.5a.523.523,0,0,1,.31.476Z" transform="translate(54 811.953)" fill="#fff"/>
    <path id="Shape-2" data-name="Shape" d="M4.81,21.01c.3.284.595.559.864.838,1.624,1.645,6.455,5.819,7.774,6.952,1.319-1.133,6.15-5.307,7.774-6.952.269-.279.564-.553.864-.838a15.2,15.2,0,0,0,2.4-2.674,7.583,7.583,0,0,0,.745-1.417l-1.417,1.014a.931.931,0,0,1-1.076,0L20,15.983l.491,3.688.791-1.314a.517.517,0,0,1,.89.528l-1.552,2.586a.517.517,0,0,1-.445.253.7.7,0,0,1-.1-.01.517.517,0,0,1-.409-.44L18.947,15.9l-.864,2.871a.521.521,0,0,1-.5.367H15.838l-1.412,2.819a.517.517,0,0,1-.46.284.5.5,0,0,1-.088-.005.521.521,0,0,1-.424-.45l-.729-5.84-.848,2.824a.521.521,0,0,1-.5.367H9.569L8.172,21a.514.514,0,0,1-.538.191.521.521,0,0,1-.388-.424l-.709-4.609-.874,2.628a.525.525,0,0,1-.491.352H3A20.087,20.087,0,0,0,4.81,21.01Z" transform="translate(54 811.953)" fill="#fff"/>
    <path id="Shape-3" data-name="Shape" d="M18.621,4.309v5.783a2.154,2.154,0,0,0,.916,1.748l3.74,2.664,3.74-2.664a2.154,2.154,0,0,0,.916-1.748V4.309L23.276,2.3Zm8.079.978a.511.511,0,0,1,.083.724l-4.138,5.172a.517.517,0,0,1-.4.2.532.532,0,0,1-.31-.1L19.862,9.724a.524.524,0,0,1-.207-.414.532.532,0,0,1,.1-.31.517.517,0,0,1,.724-.1l1.666,1.252,3.828-4.779a.508.508,0,0,1,.724-.083Z" transform="translate(54 811.953)" fill="#fff"/>
    <path id="Shape-4" data-name="Shape" d="M6.233,13.8a.532.532,0,0,1,.533-.352.522.522,0,0,1,.471.44L8.084,19.4,8.9,18.31A.525.525,0,0,1,9.31,18.1H11L12.434,13.3a.528.528,0,0,1,.538-.367.522.522,0,0,1,.471.455l.822,6.579.791-1.578a.511.511,0,0,1,.46-.284H17.2l1.014-3.388-.481-.347a5.257,5.257,0,0,1-2.219-4.278v-1.8a7.039,7.039,0,0,0-1.609,2.028.511.511,0,0,1-.46.284.529.529,0,0,1-.466-.284A6.586,6.586,0,0,0,7.221,6.724c-3.869,0-6.186,2.524-6.186,6.755A8.591,8.591,0,0,0,2.26,18.1H4.8Z" transform="translate(54 811.953)" fill="#fff"/>
    <path id="Shape-5" data-name="Shape" d="M2.405,18.336c-.052-.078-.1-.155-.145-.233H.517a.517.517,0,0,0,0,1.034H3A8.47,8.47,0,0,1,2.405,18.336Z" transform="translate(54 811.953)" fill="#fff"/>
  </g>
</svg>
