<svg xmlns="http://www.w3.org/2000/svg" width="28.443" height="30" viewBox="0 0 28.443 30">
  <g id="Group_756" data-name="Group 756" transform="translate(-54.779 -727)">
    <path id="Path_377" data-name="Path 377" d="M17.958,23.249A5.572,5.572,0,0,1,23.116,19.7a5.323,5.323,0,0,1,1.729.28V14.9c-.064-.054-.14-.112-.214-.175l.009-.007s0,0,0,0l-9.5-8.109a1.4,1.4,0,0,0-1.827,0l-9.49,8.109c-.077.066-.159.126-.224.183v10.05a2.582,2.582,0,0,0,2.576,2.606h4.312V22.608a2.251,2.251,0,0,1,2.24-2.264h2.987a2.251,2.251,0,0,1,2.24,2.264Zm0,0" transform="translate(54.777 727)" fill="#fff"/>
    <path id="Path_378" data-name="Path 378" d="M20.211,3.638l3.347,2.835V.26H20.211Zm0,0" transform="translate(54.777 727)" fill="#fff"/>
    <path id="Path_379" data-name="Path 379" d="M15.718,21.116H12.731a1.478,1.478,0,0,0-1.468,1.492v4.945h5.922V22.608a1.478,1.478,0,0,0-1.468-1.492Zm0,0" transform="translate(54.777 727)" fill="#fff"/>
    <path id="Path_380" data-name="Path 380" d="M23.141,20.473A4.764,4.764,0,1,0,27.9,25.236,4.763,4.763,0,0,0,23.141,20.473Zm.933,3.8a.386.386,0,0,1,0,.772H21.585a2.046,2.046,0,0,0,.008.451h2.223a.386.386,0,0,1,0,.772H21.853a2.049,2.049,0,0,0,2.509.882.386.386,0,0,1,.278.721A2.824,2.824,0,0,1,21,26.266h-.528a.386.386,0,0,1,0-.772h.346c-.008-.085-.012-.171-.012-.257,0-.065,0-.129.007-.194h-.342a.386.386,0,0,1,0-.772h.5A2.825,2.825,0,0,1,24.64,22.6a.386.386,0,0,1-.278.721,2.049,2.049,0,0,0-2.544.946Zm0,0" transform="translate(54.777 727)" fill="#fff"/>
    <path id="Path_381" data-name="Path 381" d="M27.743,11.073,15.138.338a1.4,1.4,0,0,0-1.828,0L.705,11.074A2.01,2.01,0,0,0,.475,13.9l-.289.257L.48,13.9a2.009,2.009,0,0,0,2.829.223l9.5-8.109a2.172,2.172,0,0,1,2.834,0l9.5,8.108.005,0a2.007,2.007,0,0,0,2.6-3.058Zm0,0" transform="translate(54.777 727)" fill="#fff"/>
  </g>
</svg>
