<svg xmlns="http://www.w3.org/2000/svg" width="25.034" height="24" viewBox="0 0 25.034 24">
  <g id="Group_758" data-name="Group 758" transform="translate(-56 -645)">
    <path id="Path_382" data-name="Path 382" d="M4.625,6.6H19.478a.828.828,0,1,0,0-1.656H4.625a.828.828,0,1,0,0,1.656Z" transform="translate(55.371 643.664)" fill="#fff"/>
    <path id="Path_383" data-name="Path 383" d="M4.625,10.836H19.478a.828.828,0,1,0,0-1.656H4.625a.828.828,0,1,0,0,1.656Z" transform="translate(55.371 642.963)" fill="#fff"/>
    <path id="Path_384" data-name="Path 384" d="M12.5,13.415H4.625a.828.828,0,1,0,0,1.656H12.5a.828.828,0,1,0,0-1.656Z" transform="translate(55.371 642.262)" fill="#fff"/>
    <path id="Path_385" data-name="Path 385" d="M24.988,23.889,22.823,19.6l.838-.334a.722.722,0,0,0,.42-.578l.071-1.075a1.583,1.583,0,0,1,.2-.614l.574-.912a.722.722,0,0,0,0-.715l-.574-.912a1.586,1.586,0,0,1-.2-.614l-.071-1.075a.73.73,0,0,0-.328-.53V2.276A1.658,1.658,0,0,0,22.1.62H1.656A1.658,1.658,0,0,0,0,2.276V16.465a1.658,1.658,0,0,0,1.656,1.656H14.685l.038.567a.722.722,0,0,0,.42.578l.787.314-2.176,4.308a.255.255,0,0,0-.022.256.162.162,0,0,0,.146.074.4.4,0,0,0,.15-.035l1.782-.746a.394.394,0,0,1,.151-.028.474.474,0,0,1,.34.138l.856.949a.339.339,0,0,0,.249.123.317.317,0,0,0,.282-.2L19.366,20.8h.011l1.677,3.619a.317.317,0,0,0,.282.2.339.339,0,0,0,.249-.123l.856-.949a.474.474,0,0,1,.34-.138.4.4,0,0,1,.151.028l1.782.746a.4.4,0,0,0,.15.035.162.162,0,0,0,.146-.074A.255.255,0,0,0,24.988,23.889ZM1.656,2.276H22.1v9.09l-.648-.779a.732.732,0,0,0-.539-.238.575.575,0,0,0-.141.017l-1.045.266a1.653,1.653,0,0,1-.645,0l-1.045-.266a.575.575,0,0,0-.141-.017.732.732,0,0,0-.539.238l-.689.829a1.576,1.576,0,0,1-.522.379l-1,.4a.722.722,0,0,0-.42.578l-.071,1.075a1.582,1.582,0,0,1-.2.614l-.574.912a.722.722,0,0,0,0,.715l.237.377H1.656ZM19.4,19.253a3.522,3.522,0,1,1,3.522-3.522A3.522,3.522,0,0,1,19.4,19.253Z" transform="translate(56 644.38)" fill="#fff"/>
  </g>
</svg>
