<svg xmlns="http://www.w3.org/2000/svg" width="42" height="40.661" viewBox="0 0 42 40.661">
  <g id="house-black-silhouette-without-door" transform="translate(0 -0.67)">
    <path id="Path_398" data-name="Path 398" d="M41.474,20.508a2,2,0,0,0-.164-2.866L22.539,1.218a2.34,2.34,0,0,0-3.052.035L.653,18.518A1.991,1.991,0,0,0,.563,21.38l.472.492a2.059,2.059,0,0,0,2.826.216l1.408-1.261V39.282A2.048,2.048,0,0,0,7.318,41.33h7.342a2.048,2.048,0,0,0,2.049-2.049V26.371h9.364v12.91A1.936,1.936,0,0,0,28,41.33h7.78a2.048,2.048,0,0,0,2.049-2.049V21.087l.868.762c.479.421,1.484.083,2.246-.755Z" fill="#fff"/>
  </g>
</svg>
