<svg xmlns="http://www.w3.org/2000/svg" width="40.582" height="40.661" viewBox="0 0 40.582 40.661">
  <g id="house-black-silhouette-without-door" transform="translate(-0.709 -0.67)">
    <g id="Group_725" data-name="Group 725">
      <g id="background" transform="translate(0.67 0.67)">
        <g id="Group_724" data-name="Group 724">
          <path id="Path_448" data-name="Path 448" d="M39.036,27.979a1.585,1.585,0,0,0,1.585-1.585V16.09A6.348,6.348,0,0,0,34.28,9.749H30.951V6.341A6.348,6.348,0,0,0,24.611,0H6.381A6.348,6.348,0,0,0,.04,6.341v18.23a6.348,6.348,0,0,0,6.341,6.341H9.709V34.32a6.348,6.348,0,0,0,6.341,6.341H34.28a6.348,6.348,0,0,0,6.341-6.341,1.585,1.585,0,1,0-3.17,0,3.174,3.174,0,0,1-3.17,3.17H16.05a3.174,3.174,0,0,1-3.17-3.17V16.09a3.174,3.174,0,0,1,3.17-3.17H34.28a3.174,3.174,0,0,1,3.17,3.17v10.3A1.585,1.585,0,0,0,39.036,27.979ZM3.21,6.341a3.174,3.174,0,0,1,3.17-3.17H8.633L3.21,8.592V6.341Zm6.5,21.4H6.63l3.08-3.08Zm0-11.651v4.088L3.671,26.216a3.151,3.151,0,0,1-.461-1.645v-2.49l6.521-6.521Q9.71,15.822,9.709,16.09ZM3.21,17.6V13.076l9.9-9.894.011-.011h4.52ZM20.139,9.749H16.05q-.268,0-.53.022l6.209-6.209a1.585,1.585,0,0,0,.287-.392h2.595a3.151,3.151,0,0,1,1.645.461l-6.1,6.1Zm7.642,0H24.622L27.781,6.59Z" fill="#fff"/>
        </g>
      </g>
    </g>
  </g>
</svg>
