<svg xmlns="http://www.w3.org/2000/svg" width="28.853" height="40.661" viewBox="0 0 28.853 40.661">
  <g id="house-black-silhouette-without-door" transform="translate(-6.574 -0.67)">
    <g id="Group_729" data-name="Group 729">
      <g id="positive-verified-symbol-of-a-clipboard" transform="translate(0.669 0.67)">
        <g id="Group_728" data-name="Group 728">
          <path id="Path_462" data-name="Path 462" d="M27.887,7.687V6.6a1.659,1.659,0,0,0-1.661-1.659H23.778A3.452,3.452,0,0,0,24.142,3.4a3.4,3.4,0,1,0-6.426,1.536H14.436A1.658,1.658,0,0,0,12.776,6.6V7.687H8.6A2.691,2.691,0,0,0,5.9,10.377V37.97A2.691,2.691,0,0,0,8.6,40.661H32.067a2.69,2.69,0,0,0,2.69-2.691V10.377a2.691,2.691,0,0,0-2.69-2.69h-4.18ZM18.724,3.4a2.023,2.023,0,1,1,3.351,1.535H19.421A2.031,2.031,0,0,1,18.724,3.4ZM32.009,36.516a1.4,1.4,0,0,1-1.4,1.4H10.05a1.4,1.4,0,0,1-1.4-1.4V11.831a1.4,1.4,0,0,1,1.4-1.4h2.726a1.374,1.374,0,0,0,1.374,1.374H26.512a1.374,1.374,0,0,0,1.375-1.374h2.727a1.4,1.4,0,0,1,1.4,1.4V36.516Z" fill="#fff"/>
          <path id="Path_463" data-name="Path 463" d="M19.225,24.869,17.55,23.192a1.006,1.006,0,0,0-1.423,0l-.52.52a1,1,0,0,0,0,1.422l2.942,2.944a1.01,1.01,0,0,0,1.443-.023L25.1,22.637a1,1,0,0,0-.041-1.421l-.534-.5a1,1,0,0,0-.719-.274,1.014,1.014,0,0,0-.7.315Z" fill="#fff"/>
          <path id="Path_464" data-name="Path 464" d="M20.33,13.854A10.05,10.05,0,1,0,30.369,23.9,10.055,10.055,0,0,0,20.33,13.854Zm0,17.355a7.3,7.3,0,1,1,7.294-7.3A7.305,7.305,0,0,1,20.33,31.209Z" fill="#fff"/>
        </g>
      </g>
    </g>
  </g>
</svg>
