<svg xmlns="http://www.w3.org/2000/svg" width="35.041" height="42" viewBox="0 0 35.041 42">
  <g id="user" transform="translate(0 0)">
    <path id="Path_400" data-name="Path 400" d="M17.255,20.231a9.788,9.788,0,0,0,7.153-2.964,9.788,9.788,0,0,0,2.963-7.152,9.789,9.789,0,0,0-2.964-7.152A9.79,9.79,0,0,0,17.255,0,9.788,9.788,0,0,0,10.1,2.963a9.788,9.788,0,0,0-2.964,7.152A9.788,9.788,0,0,0,10.1,17.268a9.79,9.79,0,0,0,7.152,2.963Zm0,0" fill="#fff"/>
    <path id="Path_401" data-name="Path 401" d="M34.956,32.3a24.986,24.986,0,0,0-.34-2.654,20.909,20.909,0,0,0-.653-2.668,13.179,13.179,0,0,0-1.1-2.488,9.39,9.39,0,0,0-1.654-2.156,7.293,7.293,0,0,0-2.376-1.493,8.212,8.212,0,0,0-3.033-.549,3.079,3.079,0,0,0-1.644.7c-.493.321-1.069.693-1.713,1.1a9.814,9.814,0,0,1-2.216.976,8.605,8.605,0,0,1-5.421,0,9.791,9.791,0,0,1-2.215-.976c-.637-.407-1.214-.779-1.714-1.1a3.075,3.075,0,0,0-1.644-.7,8.2,8.2,0,0,0-3.033.55A7.287,7.287,0,0,0,3.827,22.33a9.392,9.392,0,0,0-1.653,2.155,13.205,13.205,0,0,0-1.1,2.489,20.959,20.959,0,0,0-.652,2.668A24.9,24.9,0,0,0,.084,32.3C.028,33.1,0,33.934,0,34.777a6.974,6.974,0,0,0,2.071,5.276A7.456,7.456,0,0,0,7.409,42H27.632a7.455,7.455,0,0,0,5.337-1.947,6.971,6.971,0,0,0,2.072-5.277c0-.846-.029-1.681-.085-2.481Zm0,0" fill="#fff"/>
  </g>
</svg>
